{"title":"Milou En Mai (Louis Malle, 1989)","uid":5604518,"size":877563478,"categoryP":"video","categoryS":"movies","magnet":"?xt=urn:btih:17c852a41c268bc8243174cd192420dcc0fb5185&amp;dn=Milou+En+Mai+%28Louis+Malle%2C+1989%29&amp;tr=udp%3A%2F%2Ftracker.openbittorrent.com%3A80&amp;tr=udp%3A%2F%2Fopen.demonii.com%3A1337&amp;tr=udp%3A%2F%2Ftracker.coppersurfer.tk%3A6969&amp;tr=udp%3A%2F%2Fexodus.desync.com%3A6969","seeders":4,"leechers":0,"uploader":"mfccorrea","files":3,"time":1275515600,"description":"This comic excursion from Louis Malle is set in May 1968, concurrent with a series of Parisian student uprisings. After the death of family matriarch Mme. Vieuzac (Paulette Dubost), the survivors converge on the French countryside for her funeral; they include her two sons, Milou (Michel Piccoli) and Georges (Michel Duchaussoy); Camille (Miou-Miou), Milou's daughter; Camille's husband and children; and granddaughter Claire (Dominique Blanc), a lesbian. With the latest news of rebellion from Paris as their soundtrack, the family members argue over property, revive long-simmering arguments, and watch in dismay as an unlikely love affair begins. When the student uprising threatens to spill over into their community, the family heads for the hills, where the great outdoors only intensifies their reunion. \n\nGeneral\nComplete name                    : Milou En Mai (Louis Malle, 1989).avi\nFormat                           : AVI\nFormat/Info                      : Audio Video Interleave\nFile size                        : 837 MiB\nDuration                         : 1h 42mn\nOverall bit rate                 : 1 141 Kbps\n\nVideo\nID                               : 0\nFormat                           : MPEG-4 Visual\nFormat settings, BVOP            : Yes\nFormat settings, QPel            : No\nFormat settings, GMC             : No warppoints\nFormat settings, Matrix          : Default (H.263)\nMuxing mode                      : Packed bitstream\nCodec ID                         : DX50\nCodec ID/Hint                    : DivX 5\nDuration                         : 1h 42mn\nBit rate                         : 995 Kbps\nWidth                            : 640 pixels\nHeight                           : 384 pixels\nDisplay aspect ratio             : 1.667\nFrame rate                       : 25.000 fps\nColor space                      : YUV\nChroma subsampling               : 4:2:0\nBit depth                        : 8 bits\nScan type                        : Progressive\nBits/(Pixel*Frame)               : 0.162\nStream size                      : 730 MiB (87%)\nTitle                            : Video\nWriting library                  : DivX 5.2.1 Alpha (UTC 2004-09-08)\n\nAudio\nID                               : 1\nFormat                           : MPEG Audio\nFormat version                   : Version 1\nFormat profile                   : Layer 3\nMode                             : Joint stereo\nMode extension                   : MS Stereo\nCodec ID                         : 55\nCodec ID/Hint                    : MP3\nDuration                         : 1h 42mn\nBit rate mode                    : Variable\nBit rate                         : 128 Kbps\nChannel(s)                       : 2 channels\nSampling rate                    : 44.1 KHz\nStream size                      : 98.0 MiB (12%)\nAlignment                        : Aligned on interleaves\nInterleave, duration             : 26 ms (0.65 video frame)\nInterleave, preload duration     : 312 ms\nTitle                            : Audio\n\n &lt;a href=&quot;\nhttp://www.imdb.com/title/tt0097884/&quot; rel=&quot;nofollow&quot; target=&quot;_NEW&quot;&gt;\nhttp://www.imdb.com/title/tt0097884/&lt;/a&gt;\n\nFrench audio, English and Spanish subtitles\n\n","torrent":{"xt":"urn:btih:17c852a41c268bc8243174cd192420dcc0fb5185","amp;dn":"Milou+En+Mai+%28Louis+Malle%2C+1989%29","amp;tr":["udp%3A%2F%2Ftracker.openbittorrent.com%3A80","udp%3A%2F%2Fopen.demonii.com%3A1337","udp%3A%2F%2Ftracker.coppersurfer.tk%3A6969","udp%3A%2F%2Fexodus.desync.com%3A6969"],"infoHash":"17c852a41c268bc8243174cd192420dcc0fb5185","infoHashBuffer":{"type":"Buffer","data":[23,200,82,164,28,38,139,200,36,49,116,205,25,36,32,220,192,251,81,133]},"announce":[],"urlList":[]}}